<svg width="20" height="20" viewBox="0 0 20 20" fill="none" xmlns="http://www.w3.org/2000/svg">
<g opacity="0.2">
<rect x="10" width="10" height="10" fill="white" fill-opacity="0.2"/>
<rect y="10" width="10" height="10" fill="white" fill-opacity="0.2"/>
<rect width="10" height="10" fill="white" fill-opacity="0.5"/>
<path d="M7.1464 7.6106L7.37613 6.18205H3.84047L4.24951 3.86277H6.37315L6.27789 4.54623H7.61707L7.81319 3.33056L7.21924 2.3894H2.1875L2.78705 3.36978L2.27155 6.62462L2.8767 7.6106H7.1464Z" fill="white"/>
<rect x="10" y="10" width="10" height="10" fill="white" fill-opacity="0.5"/>
<path d="M17.1464 17.6106L17.3761 16.1821H13.8405L14.2495 13.8628H16.3731L16.2779 14.5462H17.6171L17.8132 13.3306L17.2192 12.3894H12.1875L12.7871 13.3698L12.2715 16.6246L12.8767 17.6106H17.1464Z" fill="white"/>
</g>
</svg>
