<svg width="20" height="20" viewBox="0 0 20 20" fill="none" xmlns="http://www.w3.org/2000/svg">
<g opacity="0.2">
<rect x="10" width="10" height="10" fill="white" fill-opacity="0.2"/>
<rect y="10" width="10" height="10" fill="white" fill-opacity="0.2"/>
<rect width="10" height="10" fill="white" fill-opacity="0.5"/>
<path d="M5.91775 3.0034C6.45378 3.00889 6.98986 3.00834 7.52589 3.00174C7.69039 3.21261 7.83871 3.42678 8 3.6368L7.70331 5.13581C7.68643 5.09209 7.69803 5.08584 7.6829 5.03435C7.45694 4.95686 6.97022 4.99819 6.72752 5.03183C6.67217 5.03951 6.66008 5.01454 6.62181 5.02712L6.60098 5.10162L6.57784 5.08134C6.62641 4.76395 6.71035 4.36556 6.77692 4.04815L5.82305 4.04135C5.75764 4.33677 5.65661 4.79948 5.61335 5.09576C5.60139 5.0595 5.59489 5.02892 5.55396 5.01272C5.4058 4.95412 4.62803 5.00261 4.51058 5.03849L4.5106 5.06143L4.48126 5.05667C4.53548 4.72289 4.61314 4.38681 4.67132 4.05227C4.18361 4.0446 3.69586 4.04126 3.20809 4.04224C3.3528 4.17815 3.49722 4.30148 3.64764 4.43028C3.60433 4.6297 3.53527 5.0447 3.48732 5.21025C3.46024 5.13698 3.4817 5.09876 3.4878 5.01387C3.43179 5.03329 3.29784 4.9887 3.2226 4.99543C3.06394 5.00962 2.47628 4.96025 2.37876 5.05457C2.47405 4.61054 2.55517 4.12807 2.65513 3.69495C2.49509 3.46715 2.33702 3.23793 2.18093 3.00726C3.10434 3.0065 4.05926 2.99244 4.98038 3.0056C5.10572 3.17116 5.2282 3.33901 5.34771 3.50908C5.52544 3.35096 5.73739 3.15135 5.91775 3.0034Z" fill="white"/>
<path d="M4.48126 5.05667L4.5106 5.06143L4.51058 5.03849C4.62803 5.00261 5.4058 4.95412 5.55396 5.01272C5.59489 5.02892 5.60139 5.0595 5.61335 5.09576C5.50045 5.70908 5.37096 6.38565 5.2374 6.9945C4.8693 6.98641 4.4466 7.0123 4.09355 6.9921L4.33824 5.72662C4.36975 5.56401 4.43373 5.19471 4.48126 5.05667Z" fill="white"/>
<path d="M6.57784 5.08134L6.60098 5.10162L6.62181 5.02712C6.66008 5.01454 6.67217 5.03951 6.72752 5.03183C6.97022 4.99819 7.45694 4.95686 7.6829 5.03435C7.69803 5.08584 7.68643 5.09209 7.70331 5.13581C7.67949 5.33986 7.61595 5.60601 7.57465 5.81297C7.49756 6.20622 7.41842 6.59902 7.33721 6.9914C6.97376 7.00151 6.55629 6.99195 6.18927 6.99153C6.296 6.49138 6.38553 5.98632 6.48859 5.4853C6.51471 5.35833 6.53727 5.20241 6.57784 5.08134Z" fill="white"/>
<path d="M2.37876 5.05457C2.47628 4.96025 3.06394 5.00962 3.2226 4.99543C3.29784 4.9887 3.43179 5.03329 3.4878 5.01387C3.4817 5.09876 3.46024 5.13698 3.48732 5.21025C3.48993 5.27749 3.39843 5.71462 3.37973 5.80754L3.14386 6.99038C2.77176 7.00051 2.37394 6.99265 2 6.99191C2.11773 6.35046 2.25338 5.69576 2.37876 5.05457Z" fill="white"/>
<rect x="10" y="10" width="10" height="10" fill="white" fill-opacity="0.5"/>
<path d="M15.9178 13.0034C16.4538 13.0089 16.9899 13.0083 17.5259 13.0017C17.6904 13.2126 17.8387 13.4268 18 13.6368L17.7033 15.1358C17.6864 15.0921 17.698 15.0858 17.6829 15.0343C17.4569 14.9569 16.9702 14.9982 16.7275 15.0318C16.6722 15.0395 16.6601 15.0145 16.6218 15.0271L16.601 15.1016L16.5778 15.0813C16.6264 14.7639 16.7103 14.3656 16.7769 14.0482L15.8231 14.0413C15.7576 14.3368 15.6566 14.7995 15.6134 15.0958C15.6014 15.0595 15.5949 15.0289 15.554 15.0127C15.4058 14.9541 14.628 15.0026 14.5106 15.0385L14.5106 15.0614L14.4813 15.0567C14.5355 14.7229 14.6131 14.3868 14.6713 14.0523C14.1836 14.0446 13.6959 14.0413 13.2081 14.0422C13.3528 14.1781 13.4972 14.3015 13.6476 14.4303C13.6043 14.6297 13.5353 15.0447 13.4873 15.2102C13.4602 15.137 13.4817 15.0988 13.4878 15.0139C13.4318 15.0333 13.2978 14.9887 13.2226 14.9954C13.0639 15.0096 12.4763 14.9602 12.3788 15.0546C12.4741 14.6105 12.5552 14.1281 12.6551 13.6949C12.4951 13.4672 12.337 13.2379 12.1809 13.0073C13.1043 13.0065 14.0593 12.9924 14.9804 13.0056C15.1057 13.1712 15.2282 13.339 15.3477 13.5091C15.5254 13.351 15.7374 13.1514 15.9178 13.0034Z" fill="white"/>
<path d="M14.4813 15.0567L14.5106 15.0614L14.5106 15.0385C14.628 15.0026 15.4058 14.9541 15.554 15.0127C15.5949 15.0289 15.6014 15.0595 15.6134 15.0958C15.5004 15.7091 15.371 16.3857 15.2374 16.9945C14.8693 16.9864 14.4466 17.0123 14.0935 16.9921L14.3382 15.7266C14.3698 15.564 14.4337 15.1947 14.4813 15.0567Z" fill="white"/>
<path d="M16.5778 15.0813L16.601 15.1016L16.6218 15.0271C16.6601 15.0145 16.6722 15.0395 16.7275 15.0318C16.9702 14.9982 17.4569 14.9569 17.6829 15.0343C17.698 15.0858 17.6864 15.0921 17.7033 15.1358C17.6795 15.3399 17.616 15.606 17.5746 15.813C17.4976 16.2062 17.4184 16.599 17.3372 16.9914C16.9738 17.0015 16.5563 16.9919 16.1893 16.9915C16.296 16.4914 16.3855 15.9863 16.4886 15.4853C16.5147 15.3583 16.5373 15.2024 16.5778 15.0813Z" fill="white"/>
<path d="M12.3788 15.0546C12.4763 14.9602 13.0639 15.0096 13.2226 14.9954C13.2978 14.9887 13.4318 15.0333 13.4878 15.0139C13.4817 15.0988 13.4602 15.137 13.4873 15.2102C13.4899 15.2775 13.3984 15.7146 13.3797 15.8075L13.1439 16.9904C12.7718 17.0005 12.3739 16.9926 12 16.9919C12.1177 16.3505 12.2534 15.6958 12.3788 15.0546Z" fill="white"/>
</g>
</svg>
