<svg width="100" height="100" viewBox="0 0 100 100" fill="none" xmlns="http://www.w3.org/2000/svg">
<path d="M58 42.4997C60.7949 42.4979 63.5782 42.5104 66.3271 42.5504C67.4342 44.0404 68.5157 45.5513 69.5713 47.0817C71.1412 45.6587 73.0133 43.8615 74.6064 42.5299C79.3414 42.5793 84.0776 42.5747 88.8125 42.5153C90.2655 44.4131 91.5753 46.341 93 48.2311L90.3789 61.7223C90.1685 63.5586 89.608 65.9536 89.2432 67.8161C88.5622 71.3552 87.8628 74.8912 87.1455 78.4225C83.935 78.5135 80.2469 78.4272 77.0049 78.4235C77.9477 73.9221 78.7391 69.3761 79.6494 64.8669C79.8801 63.7244 80.0793 62.3215 80.4375 61.2321C80.8666 58.3757 81.6082 54.7899 82.1963 51.9333L73.7705 51.8717C73.1927 54.5304 72.3001 58.6945 71.918 61.361C70.9207 66.8808 69.7764 72.9703 68.5967 78.4499C65.3452 78.3771 61.6116 78.6102 58.4932 78.4284L60.6543 67.0397C60.9327 65.5761 61.4982 62.2518 61.918 61.0094C62.3969 58.0056 63.0828 54.981 63.5967 51.9704C60.8159 51.9258 58.0349 51.8985 55.2539 51.8864C54.9445 53.4527 54.63 55.0179 54.3135 56.5827C53.9459 58.5108 53.4804 61.1866 53.1377 62.3922C53.1604 62.9985 52.3528 66.9304 52.1875 67.7672L50.1045 78.4128C46.8176 78.5039 43.3032 78.4331 40 78.4264C41.0399 72.6535 42.2382 66.7614 43.3457 60.9909C43.5913 59.8248 43.8251 58.6289 44.0566 57.4235C44.0395 57.4235 44.022 57.4235 44.0049 57.4235C44.6148 54.5115 45.1616 51.581 45.7178 48.654C44.3277 46.6369 42.9548 44.6071 41.5986 42.5651C43.3543 42.5636 45.1228 42.5545 46.8984 42.5456C46.8986 42.5446 46.8992 42.5436 46.8994 42.5426H58V42.4997ZM8.59863 21.5651C16.7553 21.5583 25.1907 21.432 33.3271 21.5504C34.4342 23.0404 35.5157 24.5513 36.5713 26.0817C38.1412 24.6587 40.0133 22.8615 41.6064 21.5299C46.3414 21.5793 51.0776 21.5747 55.8125 21.5153C57.2655 23.4131 58.5753 25.341 60 27.2311L57.4785 40.2116H47.4404C47.87 37.3585 48.6096 33.7831 49.1963 30.9333L40.7705 30.8717C40.1927 33.5304 39.3001 37.6945 38.918 40.361C37.9207 45.8808 36.7764 51.9703 35.5967 57.4499C32.3452 57.3771 28.6116 57.6102 25.4932 57.4284L27.6543 46.0397C27.9327 44.5761 28.4982 41.2518 28.918 40.0094C29.3969 37.0056 30.0828 33.981 30.5967 30.9704C26.2887 30.9013 21.9803 30.8707 17.6719 30.8795C18.95 32.1025 20.2252 33.2127 21.5537 34.3717C21.1711 36.1665 20.5612 39.9023 20.1377 41.3922C20.1605 41.9984 19.3528 45.9304 19.1875 46.7672L17.1045 57.4128C13.8176 57.5039 10.3032 57.4331 7 57.4264C8.03989 51.6535 9.23818 45.7614 10.3457 39.9909C11.1874 35.9947 11.9041 31.6526 12.7871 27.7545C11.3735 25.7045 9.97732 23.641 8.59863 21.5651Z" fill="white"/>
</svg>
